<?xml version="1.0" standalone="no"?>
<!DOCTYPE svg PUBLIC "-//W3C//DTD SVG 20010904//EN"
 "http://www.w3.org/TR/2001/REC-SVG-20010904/DTD/svg10.dtd">
<svg version="1.0" xmlns="http://www.w3.org/2000/svg"
 width="626.000000pt" height="626.000000pt" viewBox="0 0 626.000000 626.000000"
 preserveAspectRatio="xMidYMid meet">

<g transform="translate(0.000000,626.000000) scale(0.100000,-0.100000)"
fill="#000000" stroke="none">
<path d="M2465 3974 c-49 -81 -91 -149 -92 -153 -2 -3 266 -6 594 -6 l596 0
110 -180 109 -180 -27 -50 c-15 -27 -43 -74 -61 -102 l-34 -53 -358 0 -359 0
-258 -432 c-142 -238 -260 -439 -262 -448 -2 -8 25 -62 60 -120 l63 -105 605
-3 604 -2 203 338 203 339 -90 151 c-50 82 -91 156 -91 162 0 7 41 80 91 162
50 82 88 155 85 161 -3 7 -94 158 -203 337 l-198 325 -600 2 -600 2 -90 -145z
m1279 -1099 c21 -36 36 -71 33 -78 -4 -6 -53 -88 -109 -182 l-104 -170 -362
-3 c-199 -1 -362 0 -362 4 0 3 66 115 146 250 l147 244 286 0 287 0 38 -65z"/>
<path d="M2193 3528 l-91 -153 184 -5 184 -5 -165 -273 -165 -274 22 -37 c133
-222 164 -271 168 -271 3 0 120 194 260 430 l255 429 344 3 344 3 30 48 29 47
-60 103 -60 102 -594 3 -593 2 -92 -152z"/>
</g>
</svg>
